<svg xmlns="http://www.w3.org/2000/svg" xmlns:xlink="http://www.w3.org/1999/xlink" viewBox="0 0 581.7 488.62"><defs><style>.cls-1{fill:none;}.cls-2{fill:#e6e6e6;}.cls-3{fill:#e5303e;}.cls-4{clip-path:url(#clip-path);}</style><clipPath id="clip-path" transform="translate(31.36)"><path class="cls-1" d="M147.17,44.67c37.88-13.77,80-17.71,118.32-5.26S337.57,140,349.76,179.48c6.08,19.66,7.26,41.88,20,57.83,10.82,13.6,28.41,20.3,38.39,34.56,14.59,20.87,8.09,50.15-2.54,73.42C389.43,380.62,370,422,340.08,445.93c-14.82,11.81-36.11,11.56-53.21,19.46A235.06,235.06,0,0,1,121,476.83c-17.82-5.45-35.28-6.76-49.56-19s-25.19-35.88-27.47-54.9c-2-17,2.73-34.48-1.3-51C37.06,329,16.31,313.54,6.5,292.25c-10.32-22.39-7.41-49.34,2.17-72.07C33.42,161.46,90.34,65.33,147.17,44.67Z"/></clipPath></defs><title>Ativo 9</title><g id="Camada_2" data-name="Camada 2"><g id="Camada_1-2" data-name="Camada 1"><path class="cls-2" d="M550.34,38.53A82,82,0,0,0,480.5,0H97C51.91,0,15.34,35.84,15.34,80.05V385C15.34,429.16,51.91,465,97,465H480.5a82,82,0,0,0,69.84-38.53Z" transform="translate(31.36)"/><path class="cls-3" d="M147.17,102.6c37.88-13.78,80-17.72,118.32-5.27s72.08,42.68,84.27,82.15c6.08,19.66,7.26,41.88,20,57.83,10.82,13.6,28.41,20.3,38.39,34.56,14.59,20.87,8.09,50.15-2.54,73.42-24.13,52.81-67,96.23-118.7,120.1A235.06,235.06,0,0,1,121,476.83c-17.82-5.45-35.28-13.19-49.56-25.46S46.2,421.93,43.92,402.91c-2-17,2.73-34.48-1.3-51C37.06,329,16.31,313.54,6.5,292.25c-10.32-22.39-7.41-49.34,2.17-72.07C33.42,161.46,90.34,123.25,147.17,102.6Z" transform="translate(31.36)"/><g class="cls-4"><image width="900" height="900" transform="translate(0 22) scale(0.52)" xlink:href="../henrique-fogaca.png"/></g></g></g></svg>